HIERARCHY
ROOT Hips
{
	OFFSET 0.000000 0.000000 0.000000
	CHANNELS 6 Xposition Yposition Zposition Zrotation Yrotation Xrotation 
	JOINT LHipJoint
	{
		OFFSET 0.000000 0.000000 0.000000
		CHANNELS 3 Zrotation Yrotation Xrotation
		JOINT LeftUpLeg
		{
			OFFSET 1.363060 -1.794630 0.839290
			CHANNELS 3 Zrotation Yrotation Xrotation
			JOINT LeftLeg
			{
				OFFSET 2.448110 -6.726130 0.000000
				CHANNELS 3 Zrotation Yrotation Xrotation
				JOINT LeftFoot
				{
					OFFSET 2.562200 -7.039590 0.000000
					CHANNELS 3 Zrotation Yrotation Xrotation
					JOINT LeftToeBase
					{
						OFFSET 0.157640 -0.433110 2.322550
						CHANNELS 3 Zrotation Yrotation Xrotation
						End Site
						{
							OFFSET 0.000000 0.000000 0.000000
						}
					}
				}
			}
		}
	}
	JOINT RHipJoint
	{
		OFFSET 0.000000 0.000000 0.000000
		CHANNELS 3 Zrotation Yrotation Xrotation
		JOINT RightUpLeg
		{
			OFFSET -1.305520 -1.794630 0.839290
			CHANNELS 3 Zrotation Yrotation Xrotation
			JOINT RightLeg
			{
				OFFSET -2.542530 -6.985550 0.000000
				CHANNELS 3 Zrotation Yrotation Xrotation
				JOINT RightFoot
				{
					OFFSET -2.568260 -7.056230 0.000000
					CHANNELS 3 Zrotation Yrotation Xrotation
					JOINT RightToeBase
					{
						OFFSET -0.164730 -0.452590 2.363150
						CHANNELS 3 Zrotation Yrotation Xrotation
						End Site
						{
							OFFSET 0.000000 0.000000 0.000000
						}
					}
				}
			}
		}
	}
	JOINT LowerBack
	{
		OFFSET 0.000000 0.000000 0.000000
		CHANNELS 3 Zrotation Yrotation Xrotation
		JOINT Spine
		{
			OFFSET 0.028270 2.035590 -0.193380
			CHANNELS 3 Zrotation Yrotation Xrotation
			JOINT Spine1
			{
				OFFSET 0.056720 2.048850 -0.042750
				CHANNELS 3 Zrotation Yrotation Xrotation
				JOINT Neck
				{
					OFFSET 0.000000 0.000000 0.000000
					CHANNELS 3 Zrotation Yrotation Xrotation
					JOINT Neck1
					{
						OFFSET -0.054170 1.746240 0.172020
						CHANNELS 3 Zrotation Yrotation Xrotation
						JOINT Head
						{
							OFFSET 0.104070 1.761360 -0.123970
							CHANNELS 3 Zrotation Yrotation Xrotation
							End Site
							{
								OFFSET 0.000000 0.000000 0.000000
							}
						}
					}
				}
				JOINT LeftShoulder
				{
					OFFSET 0.000000 0.000000 0.000000
					CHANNELS 3 Zrotation Yrotation Xrotation
					JOINT LeftArm
					{
						OFFSET 3.362410 1.200890 -0.311210
						CHANNELS 3 Zrotation Yrotation Xrotation
						JOINT LeftForeArm
						{
							OFFSET 4.983000 -0.000000 -0.000000
							CHANNELS 3 Zrotation Yrotation Xrotation
							JOINT LeftHand
							{
								OFFSET 3.483560 -0.000000 -0.000000
								CHANNELS 3 Zrotation Yrotation Xrotation
								JOINT LeftFingerBase
								{
									OFFSET 0.000000 0.000000 0.000000
									CHANNELS 3 Zrotation Yrotation Xrotation
									JOINT LeftHandIndex1
									{
										OFFSET 0.715260 -0.000000 -0.000000
										CHANNELS 3 Zrotation Yrotation Xrotation
										End Site
										{
											OFFSET 0.000000 0.000000 0.000000
										}
									}
								}
								JOINT LThumb
								{
									OFFSET 0.000000 0.000000 0.000000
									CHANNELS 3 Zrotation Yrotation Xrotation
									End Site
									{
										OFFSET 0.000000 0.000000 0.000000
									}
								}
							}
						}
					}
				}
				JOINT RightShoulder
				{
					OFFSET 0.000000 0.000000 0.000000
					CHANNELS 3 Zrotation Yrotation Xrotation
					JOINT RightArm
					{
						OFFSET -3.136600 1.374050 -0.404650
						CHANNELS 3 Zrotation Yrotation Xrotation
						JOINT RightForeArm
						{
							OFFSET -5.241900 -0.000000 -0.000000
							CHANNELS 3 Zrotation Yrotation Xrotation
							JOINT RightHand
							{
								OFFSET -3.444170 -0.000000 -0.000000
								CHANNELS 3 Zrotation Yrotation Xrotation
								JOINT RightFingerBase
								{
									OFFSET 0.000000 0.000000 0.000000
									CHANNELS 3 Zrotation Yrotation Xrotation
									JOINT RightHandIndex1
									{
										OFFSET -0.622530 -0.000000 -0.000000
										CHANNELS 3 Zrotation Yrotation Xrotation
										End Site
										{
											OFFSET 0.000000 0.000000 0.000000
										}
									}
								}
								JOINT RThumb
								{
									OFFSET 0.000000 0.000000 0.000000
									CHANNELS 3 Zrotation Yrotation Xrotation
									End Site
									{
										OFFSET 0.000000 0.000000 0.000000
									}
								}
							}
						}
					}
				}
			}
		}
	}
}
MOTION
Frames: 7
Frame Time: 0.008333
-1.133615 14.849970 3.920616 -4.379468 4.587787 26.549168 11.635936 1.134547 -3.591096 -3.662208 -6.121375 -62.583690 10.272894 22.651420 64.696517 1.381247 -9.953740 -15.772323 0.539800 -4.707200 -13.075300 -13.126449 -1.731048 -3.094890 24.952247 2.978008 -61.995557 -11.612978 -24.129752 70.748934 -1.505606 -4.575594 -26.144184 -0.404600 4.083800 -11.312600 -3.617973 -2.833452 20.372430 0.907803 -4.429552 -4.489535 -4.904334 -1.884220 -8.327912 7.370991 12.529136 -17.106759 0.030480 14.845840 -1.705719 -5.848400 6.189900 4.027000 10.429765 -10.564853 4.464487 -34.676931 -30.016323 1.764483 52.299246 -48.519636 -18.983469 -0.095034 3.790859 -4.932480 12.788707 22.991605 4.195800 -7.125000 0.000000 0.000000 -15.216800 48.904600 -1.497000 -8.834578 12.034049 4.899639 90.794136 -1.451690 48.931676 -45.164486 49.160657 -14.169604 -1.836645 -3.224675 -0.055673 -26.247683 -9.227341 2.593900 7.125000 0.000000 0.000000 1.867400 -36.242500 0.402300 
-1.136085 14.925251 3.930818 -4.377952 4.605644 26.581663 11.638995 1.133092 -3.568773 -3.808119 -6.291336 -61.954646 9.855760 22.467837 63.526638 1.332627 -9.627695 -15.491878 0.520300 -4.623100 -12.836700 -13.133394 -1.737902 -3.079690 25.098701 3.084057 -61.438253 -11.201582 -23.984988 69.636630 -1.428287 -4.712868 -25.817275 -0.389800 4.009200 -11.102600 -3.529049 -2.813227 20.181553 0.899438 -4.376122 -4.498078 -4.965112 -1.868702 -8.236265 7.419466 12.430688 -17.232686 0.104140 14.697295 -1.677046 -5.820500 6.125600 4.032400 10.393320 -10.584673 4.565483 -36.106345 -28.403799 3.595593 54.712471 -49.515825 -20.657599 -0.047917 3.699188 -4.857114 12.876976 22.669119 4.165700 -7.125000 0.000000 0.000000 -15.085700 48.693800 -1.403800 -8.838810 12.047433 4.861972 90.821063 -1.484560 48.828801 -45.026209 49.098596 -14.082968 -1.822602 -3.236236 -0.240711 -26.139200 -9.239534 2.585300 7.125000 0.000000 0.000000 1.956100 -36.246300 0.421200 
-1.138448 15.000747 3.941342 -4.374281 4.630791 26.610663 11.642675 1.130885 -3.546119 -3.956134 -6.470364 -61.310602 9.435996 22.272563 62.338911 1.284450 -9.287721 -15.214822 0.501700 -4.540600 -12.602800 -13.140846 -1.745491 -3.064919 25.247689 3.182878 -60.867483 -10.789237 -23.829371 68.513850 -1.351475 -4.855657 -25.490683 -0.375000 3.933100 -10.888500 -3.431743 -2.792057 19.987061 0.889636 -4.320579 -4.506430 -5.039397 -1.851878 -8.143248 7.471268 12.327751 -17.353554 0.182457 14.541811 -1.644038 -5.791000 6.059500 4.037300 10.355341 -10.597918 4.668023 -37.532886 -26.769085 5.442726 57.172552 -50.420487 -22.419027 0.002669 3.622311 -4.850252 13.055802 22.416182 4.174300 -7.125000 0.000000 0.000000 -14.899300 48.547800 -1.331100 -8.843393 12.056783 4.824803 90.856526 -1.531987 48.709984 -44.895614 49.042083 -14.002060 -1.812502 -3.243673 -0.324894 -26.038351 -9.248447 2.576500 7.125000 0.000000 0.000000 2.036800 -36.247800 0.438500 
-1.140595 15.076457 3.952188 -4.371125 4.657175 26.638195 11.647002 1.128228 -3.522950 -4.103408 -6.655222 -60.653087 9.014139 22.065062 61.133197 1.236430 -8.911768 -14.947552 0.484700 -4.464300 -12.386600 -13.149157 -1.753672 -3.049963 25.399367 3.281385 -60.285029 -10.374642 -23.662908 67.376569 -1.274249 -5.006624 -25.159976 -0.360500 3.857000 -10.674700 -3.328048 -2.770039 19.787103 0.879034 -4.263271 -4.515415 -5.121998 -1.833902 -8.046378 7.521037 12.221866 -17.490219 0.269379 14.383137 -1.596502 -5.754700 5.994100 4.054200 10.317024 -10.604213 4.768478 -38.961011 -25.113216 7.309503 59.651848 -51.221057 -24.246791 0.056737 3.561518 -4.921591 13.338689 22.231449 4.225200 -7.125000 0.000000 0.000000 -14.644100 48.465800 -1.277300 -8.848785 12.064127 4.787242 90.897403 -1.589407 48.583454 -44.773374 48.990641 -13.927034 -1.805954 -3.248049 -0.314972 -25.947044 -9.263113 2.571700 7.125000 0.000000 0.000000 2.108500 -36.256000 0.453500 
-1.142636 15.152060 3.963464 -4.366634 4.690365 26.657922 11.651985 1.124853 -3.498709 -4.249845 -6.851526 -59.974595 8.590624 21.844912 59.909246 1.188761 -8.510826 -14.687119 0.468500 -4.390000 -12.176500 -13.157889 -1.762537 -3.034862 25.553444 3.373772 -59.684411 -9.958759 -23.484436 66.225771 -1.196951 -5.165948 -24.827323 -0.345900 3.779200 -10.456300 -3.218534 -2.748182 19.590680 0.867418 -4.206479 -4.526313 -5.204839 -1.815452 -7.948509 7.532992 12.095369 -17.659323 0.389570 14.201133 -1.521319 -5.688400 5.923800 4.086800 10.276964 -10.605784 4.862074 -40.380943 -23.437439 9.206318 62.114518 -51.907327 -26.108263 0.111946 3.514952 -5.083719 13.709841 22.095021 4.309900 -7.125000 0.000000 0.000000 -14.325900 48.428600 -1.235100 -8.858582 12.070510 4.747522 90.937747 -1.658153 48.454360 -44.656021 48.941502 -13.855707 -1.801627 -3.251749 -0.232640 -25.863781 -9.297692 2.576100 7.125000 0.000000 0.000000 2.172900 -36.284500 0.465900 
-1.144139 15.228200 3.975600 -4.369228 4.721113 26.663483 11.657064 1.121004 -3.474270 -4.394595 -7.047142 -59.262851 8.166524 21.610146 58.667823 1.141457 -8.087172 -14.433918 0.454500 -4.324800 -11.992300 -13.167761 -1.771976 -3.019916 25.718138 3.465652 -59.051665 -9.539179 -23.292500 65.054951 -1.119862 -5.330192 -24.489996 -0.331300 3.699200 -10.232000 -3.100328 -2.723365 19.399737 0.855934 -4.145135 -4.537139 -5.294415 -1.794329 -7.859167 7.559506 11.975436 -17.810171 0.503248 14.026414 -1.441789 -5.629700 5.857500 4.122300 10.239125 -10.604433 4.949785 -41.785793 -21.748496 11.120889 64.524111 -52.480496 -27.972964 0.160357 3.481273 -5.321297 14.109746 22.029321 4.417400 -7.125000 0.000000 0.000000 -13.999600 48.452200 -1.214200 -8.866725 12.076863 4.711302 90.981885 -1.748807 48.315869 -44.553557 48.899651 -13.792742 -1.798925 -3.252216 -0.090587 -25.778022 -9.324639 2.577500 7.125000 0.000000 0.000000 2.237600 -36.306200 0.478600 
-1.145643 15.304555 3.988057 -4.371820 4.759988 26.662445 11.662334 1.116693 -3.449034 -4.535073 -7.253594 -58.532598 7.742735 21.362778 57.411151 1.093676 -7.654268 -14.175252 0.439400 -4.253300 -11.790400 -13.178918 -1.782041 -3.005624 25.888251 3.550316 -58.399060 -9.117813 -23.087107 63.866926 -1.041997 -5.504345 -24.146003 -0.317200 3.620600 -10.011500 -2.976561 -2.701783 19.210617 0.845771 -4.087520 -4.548197 -5.382654 -1.774814 -7.774594 7.590117 11.860560 -17.951068 0.615729 13.858221 -1.357600 -5.572700 5.795100 4.161200 10.203963 -10.601118 5.029039 -43.172731 -20.051859 13.028703 66.843738 -52.944126 -29.805566 0.201139 3.455398 -5.607475 14.501680 21.998426 4.530000 -7.125000 0.000000 0.000000 -13.686000 48.502200 -1.203100 -8.874418 12.082975 4.678036 91.022031 -1.850532 48.174832 -44.457071 48.858613 -13.733068 -1.798152 -3.249148 0.083351 -25.693397 -9.329027 2.570100 7.125000 0.000000 0.000000 2.300300 -36.306100 0.492000 
